<svg width="72" height="64" viewBox="0 0 72 64" fill="none" xmlns="http://www.w3.org/2000/svg">
<path d="M71.4549 40.5233V44.9371C71.4549 45.6695 71.4194 46.4083 71.3483 47.1407C70.3536 57.2189 62.5732 63.8043 51.3467 63.8043H20.6516C14.9673 63.8043 10.1712 62.1444 6.72514 59.1347C5.37512 58.0184 4.23827 56.7071 3.3501 55.2039C4.52248 53.9213 5.83697 52.5172 7.11593 51.1099C9.28307 48.7751 11.3791 46.4691 12.6936 44.969C14.6476 42.7941 19.799 37.069 26.9399 39.7557C28.3965 40.2994 29.6754 41.067 30.8478 41.7387C33.7255 43.4658 34.9334 43.9775 36.9584 42.986C39.1966 41.8986 40.6532 39.7557 42.1808 37.5168C42.998 36.3302 43.8151 35.182 44.7032 34.1265C48.5757 29.5848 54.5442 28.3694 59.5179 31.0561C62.0048 32.3994 64.1364 34.0945 66.1259 35.8185C66.5522 36.2023 66.9785 36.5573 67.3693 36.9091C67.9022 37.3889 69.6786 38.9881 71.4549 40.5233Z" fill="#AFAFAF"/>
<path opacity="0.4" d="M51.3827 0H20.6521C8.60851 0 0.543945 7.58018 0.543945 18.8673V44.9373C0.543945 48.8682 1.53869 52.3576 3.35056 55.2042C4.52294 53.9216 5.83743 52.5175 7.11639 51.107C9.28352 48.7754 11.3796 46.4694 12.6941 44.9693C14.6481 42.7944 19.7994 37.0693 26.9403 39.756C28.3969 40.2997 29.6759 41.0673 30.8482 41.739C33.7259 43.4661 34.9338 43.9778 36.9588 42.9831C39.197 41.8989 40.6536 39.756 42.1813 37.5139C42.9984 36.3305 43.8155 35.1823 44.7037 34.1268C48.5761 29.5851 54.5446 28.3697 59.5183 31.0563C62.0052 32.3997 64.1368 34.0948 66.1263 35.8187C66.5526 36.2025 66.9789 36.5576 67.3697 36.9094C67.9026 37.3859 69.6789 38.9851 71.4553 40.5236V18.8673C71.4553 7.58018 63.3907 0 51.3827 0Z" fill="#AFAFAF"/>
<path d="M34.065 21.6829C34.065 26.1766 29.9048 29.9188 24.9133 29.9188C19.9253 29.9188 15.7651 26.1766 15.7651 21.6829C15.7651 17.1923 19.9253 13.447 24.9133 13.447C29.9048 13.447 34.065 17.1923 34.065 21.6829Z" fill="#AFAFAF"/>
</svg>
