<svg width="15" height="15" viewBox="0 0 15 15" fill="none" xmlns="http://www.w3.org/2000/svg">
<path fill-rule="evenodd" clip-rule="evenodd" d="M5.81312 9.41138C8.40822 9.41138 10.6262 9.80462 10.6262 11.3755C10.6262 12.9463 8.42299 13.3508 5.81312 13.3508C3.21733 13.3508 1 12.9611 1 11.3895C1 9.81798 3.20256 9.41138 5.81312 9.41138Z" stroke="#FF5767" stroke-width="1.5" stroke-linecap="round" stroke-linejoin="round"/>
<path fill-rule="evenodd" clip-rule="evenodd" d="M5.81313 7.16941C4.10933 7.16941 2.72772 5.7885 2.72772 4.08471C2.72772 2.38091 4.10933 1 5.81313 1C7.51623 1 8.89784 2.38091 8.89784 4.08471C8.90417 5.78217 7.53241 7.16308 5.83494 7.16941H5.81313Z" stroke="#FF5767" stroke-width="1.5" stroke-linecap="round" stroke-linejoin="round"/>
<path d="M10.6611 6.36871C11.7874 6.21043 12.6548 5.24387 12.6569 4.074C12.6569 2.92102 11.8162 1.9643 10.7139 1.78351" stroke="#FF5767" stroke-width="1.5" stroke-linecap="round" stroke-linejoin="round"/>
<path d="M12.1471 9.07751C13.2382 9.24002 14 9.6227 14 10.4106C14 10.953 13.6413 11.3047 13.0616 11.5249" stroke="#FF5767" stroke-width="1.5" stroke-linecap="round" stroke-linejoin="round"/>
</svg>
