<svg width="26" height="26" viewBox="0 0 26 26" fill="none" xmlns="http://www.w3.org/2000/svg">
<path fill-rule="evenodd" clip-rule="evenodd" d="M9.64329 24.9998C4.98208 24.9998 1 24.2953 1 21.4722C1 18.6491 4.95669 16.1052 9.64329 16.1052C14.3045 16.1052 18.2853 18.625 18.2853 21.4468C18.2853 24.2687 14.3299 24.9998 9.64329 24.9998Z" stroke="#A7A8A8" stroke-width="2" stroke-linecap="round" stroke-linejoin="round"/>
<path fill-rule="evenodd" clip-rule="evenodd" d="M9.6433 12.0792C12.7025 12.0792 15.1829 9.59886 15.1829 6.53962C15.1829 3.48039 12.7025 1 9.6433 1C6.58407 1 4.10368 3.48039 4.10368 6.53962C4.09225 9.5887 6.55614 12.0691 9.60395 12.0792H9.6433Z" stroke="#A7A8A8" stroke-width="2" stroke-linecap="round" stroke-linejoin="round"/>
<path d="M18.8371 10.5576C20.6181 10.0815 21.9306 8.45798 21.9306 6.52596C21.9319 4.51017 20.5013 2.82696 18.5997 2.43726" stroke="#A7A8A8" stroke-width="2" stroke-linecap="round" stroke-linejoin="round"/>
<path d="M19.6744 15.0952C22.198 15.0952 24.3534 16.8064 24.3534 18.3334C24.3534 19.2334 23.6108 20.1575 22.4811 20.4229" stroke="#A7A8A8" stroke-width="2" stroke-linecap="round" stroke-linejoin="round"/>
</svg>
