<svg width="72" height="65" viewBox="0 0 72 65" fill="none" xmlns="http://www.w3.org/2000/svg">
<path d="M71.4549 41.5233V45.9371C71.4549 46.6695 71.4194 47.4083 71.3483 48.1407C70.3536 58.2189 62.5732 64.8043 51.3467 64.8043H20.6516C14.9673 64.8043 10.1712 63.1444 6.72514 60.1347C5.37512 59.0184 4.23827 57.7071 3.3501 56.2039C4.52248 54.9213 5.83697 53.5172 7.11593 52.1099C9.28307 49.7751 11.3791 47.4691 12.6936 45.969C14.6476 43.7941 19.799 38.069 26.9399 40.7557C28.3965 41.2994 29.6754 42.067 30.8478 42.7387C33.7255 44.4658 34.9334 44.9775 36.9584 43.986C39.1966 42.8986 40.6532 40.7557 42.1808 38.5168C42.998 37.3302 43.8151 36.182 44.7032 35.1265C48.5757 30.5848 54.5442 29.3694 59.5179 32.0561C62.0048 33.3994 64.1364 35.0945 66.1259 36.8185C66.5522 37.2023 66.9785 37.5573 67.3693 37.9091C67.9022 38.3889 69.6786 39.9881 71.4549 41.5233" fill="#63DE4F"/>
<g opacity="0.4">
<path d="M51.3827 1H20.6521C8.60851 1 0.543945 8.58018 0.543945 19.8673V45.9373C0.543945 49.8682 1.53869 53.3576 3.35056 56.2042C4.52294 54.9216 5.83743 53.5175 7.11639 52.107C9.28352 49.7754 11.3796 47.4694 12.6941 45.9693C14.6481 43.7944 19.7994 38.0693 26.9403 40.756C28.3969 41.2997 29.6759 42.0673 30.8482 42.739C33.7259 44.4661 34.9338 44.9778 36.9588 43.9831C39.197 42.8989 40.6536 40.756 42.1813 38.5139C42.9984 37.3305 43.8155 36.1823 44.7037 35.1268C48.5761 30.5851 54.5446 29.3697 59.5183 32.0563C62.0052 33.3997 64.1368 35.0948 66.1263 36.8187C66.5526 37.2025 66.9789 37.5576 67.3697 37.9094C67.9026 38.3859 69.6789 39.9851 71.4553 41.5236V19.8673C71.4553 8.58018 63.3907 1 51.3827 1" fill="white"/>
<path d="M51.3827 1H20.6521C8.60851 1 0.543945 8.58018 0.543945 19.8673V45.9373C0.543945 49.8682 1.53869 53.3576 3.35056 56.2042C4.52294 54.9216 5.83743 53.5175 7.11639 52.107C9.28352 49.7754 11.3796 47.4694 12.6941 45.9693C14.6481 43.7944 19.7994 38.0693 26.9403 40.756C28.3969 41.2997 29.6759 42.0673 30.8482 42.739C33.7259 44.4661 34.9338 44.9778 36.9588 43.9831C39.197 42.8989 40.6536 40.756 42.1813 38.5139C42.9984 37.3305 43.8155 36.1823 44.7037 35.1268C48.5761 30.5851 54.5446 29.3697 59.5183 32.0563C62.0052 33.3997 64.1368 35.0948 66.1263 36.8187C66.5526 37.2025 66.9789 37.5576 67.3697 37.9094C67.9026 38.3859 69.6789 39.9851 71.4553 41.5236V19.8673C71.4553 8.58018 63.3907 1 51.3827 1" stroke="#DBD9E1"/>
</g>
<path d="M34.065 22.6829C34.065 27.1766 29.9048 30.9188 24.9133 30.9188C19.9253 30.9188 15.7651 27.1766 15.7651 22.6829C15.7651 18.1923 19.9253 14.447 24.9133 14.447C29.9048 14.447 34.065 18.1923 34.065 22.6829" fill="#E6B75C"/>
<path d="M23.5572 26C23.3725 26.0022 23.1878 25.9225 23.0454 25.7608L21.2148 23.6796C20.931 23.3574 20.9281 22.8327 21.208 22.5061C21.4889 22.1795 21.9449 22.1762 22.2287 22.4984L23.5466 23.9951L26.7654 20.2466C27.0453 19.92 27.5023 19.9178 27.7861 20.24C28.0689 20.5621 28.0718 21.0869 27.7918 21.4134L24.0661 25.7531C23.9256 25.9169 23.7419 25.9988 23.5572 26" fill="white"/>
</svg>
